<svg xmlns="http://www.w3.org/2000/svg" viewBox="0 0 64 64" fill="none">
  <defs>
    <linearGradient id="g" x1="10" y1="6" x2="54" y2="58" gradientUnits="userSpaceOnUse">
      <stop stop-color="#2563EB"/>
      <stop offset="1" stop-color="#1D4ED8"/>
    </linearGradient>
  </defs>
  <rect x="6" y="6" width="52" height="52" rx="16" fill="url(#g)"/>
  <path d="M32 16c6.7 0 12 5.3 12 12 0 10-12 20-12 20S20 38 20 28c0-6.7 5.3-12 12-12Z" fill="#fff" opacity="0.95"/>
  <path d="M32 24.2c2.1 0 3.8 1.7 3.8 3.8S34.1 31.8 32 31.8 28.2 30.1 28.2 28s1.7-3.8 3.8-3.8Z" fill="#F97316"/>
  <path d="M32 36.8c-1.8 0-3.2-1.4-3.2-3.2V22.4c0-1.8 1.4-3.2 3.2-3.2s3.2 1.4 3.2 3.2v11.2c0 1.8-1.4 3.2-3.2 3.2Z" fill="#F97316" opacity="0.9"/>
</svg>
